HIERARCHY
ROOT hip
{
  OFFSET 0 0 0
  CHANNELS 6 Xposition Yposition Zposition Zrotation Yrotation Xrotation
  JOINT abdomen
  {
    OFFSET 0 20.6881 -0.73152
    CHANNELS 3 Zrotation Xrotation Yrotation
    JOINT chest
    {
      OFFSET 0 11.7043 -0.48768
      CHANNELS 3 Zrotation Xrotation Yrotation
      JOINT neck
      {
        OFFSET 0 22.1894 -2.19456
        CHANNELS 3 Zrotation Xrotation Yrotation
        JOINT head
        {
          OFFSET -0.24384 7.07133 1.2192
          CHANNELS 3 Zrotation Xrotation Yrotation
          JOINT leftEye
          {
            OFFSET 4.14528 8.04674 8.04672
            CHANNELS 3 Zrotation Xrotation Yrotation
            End Site
            {
              OFFSET 1 0 0
            }
          }
          JOINT rightEye
          {
            OFFSET -3.6576 8.04674 8.04672
            CHANNELS 3 Zrotation Xrotation Yrotation
            End Site
            {
              OFFSET 1 0 0
            }
          }
        }
      }
      JOINT rCollar
      {
        OFFSET -2.68224 19.2634 -4.8768
        CHANNELS 3 Zrotation Xrotation Yrotation
        JOINT rShldr
        {
          OFFSET -8.77824 -1.95073 1.46304
          CHANNELS 3 Zrotation Xrotation Yrotation
          JOINT rForeArm
          {
            OFFSET -28.1742 -1.7115 0.48768
            CHANNELS 3 Zrotation Xrotation Yrotation
            JOINT rHand
            {
              OFFSET -22.5879 0.773209 7.07136
              CHANNELS 3 Zrotation Xrotation Yrotation
              JOINT rThumb1
              {
                OFFSET -1.2192 -0.487915 3.41376
                CHANNELS 3 Zrotation Xrotation Yrotation
                JOINT rThumb2
                {
                  OFFSET -3.37035 -0.52449 3.41376
                  CHANNELS 3 Zrotation Xrotation Yrotation
                  End Site
                  {
                    OFFSET -1.78271 -1.18214 1.43049
                  }
                }
              }
              JOINT rIndex1
              {
                OFFSET -7.75947 0.938293 5.60832
                CHANNELS 3 Zrotation Xrotation Yrotation
                JOINT rIndex2
                {
                  OFFSET -2.54057 -0.884171 1.56538
                  CHANNELS 3 Zrotation Xrotation Yrotation
                  End Site
                  {
                    OFFSET -1.62519 -0.234802 1.16502
                  }
                }
              }
              JOINT rMid1
              {
                OFFSET -8.24714 1.18213 3.41376
                CHANNELS 3 Zrotation Xrotation Yrotation
                JOINT rMid2
                {
                  OFFSET -3.10165 -0.590103 1.0647
                  CHANNELS 3 Zrotation Xrotation Yrotation
                  End Site
                  {
                    OFFSET -2.48547 -0.328903 0.83742
                  }
                }
              }
              JOINT rRing1
              {
                OFFSET -8.82822 0.546677 1.51678
                CHANNELS 3 Zrotation Xrotation Yrotation
                JOINT rRing2
                {
                  OFFSET -2.60934 -0.819778 -0.0198488
                  CHANNELS 3 Zrotation Xrotation Yrotation
                  End Site
                  {
                    OFFSET -2.33842 -0.294052 0.168128
                  }
                }
              }
              JOINT rPinky1
              {
                OFFSET -8.27202 -0.0477905 -0.4584
                CHANNELS 3 Zrotation Xrotation Yrotation
                JOINT rPinky2
                {
                  OFFSET -1.82734 -0.647385 -0.700984
                  CHANNELS 3 Zrotation Xrotation Yrotation
                  End Site
                  {
                    OFFSET -1.69225 -0.51767 -0.607171
                  }
                }
              }
            }
          }
        }
      }
      JOINT lCollar
      {
        OFFSET 2.68224 19.2634 -4.8768
        CHANNELS 3 Zrotation Xrotation Yrotation
        JOINT lShldr
        {
          OFFSET 8.77824 -1.95073 1.46304
          CHANNELS 3 Zrotation Xrotation Yrotation
          JOINT lForeArm
          {
            OFFSET 28.1742 -1.7115 0.48768
            CHANNELS 3 Zrotation Xrotation Yrotation
            JOINT lHand
            {
              OFFSET 22.5879 0.773209 7.07136
              CHANNELS 3 Zrotation Xrotation Yrotation
              JOINT lThumb1
              {
                OFFSET 1.2192 -0.487915 3.41376
                CHANNELS 3 Zrotation Xrotation Yrotation
                JOINT lThumb2
                {
                  OFFSET 3.37035 -0.52449 3.41376
                  CHANNELS 3 Zrotation Xrotation Yrotation
                  End Site
                  {
                    OFFSET 1.78271 -1.18214 1.43049
                  }
                }
              }
              JOINT lIndex1
              {
                OFFSET 7.75947 0.938293 5.60832
                CHANNELS 3 Zrotation Xrotation Yrotation
                JOINT lIndex2
                {
                  OFFSET 2.54057 -0.884171 1.56538
                  CHANNELS 3 Zrotation Xrotation Yrotation
                  End Site
                  {
                    OFFSET 1.62519 -0.234802 1.16502
                  }
                }
              }
              JOINT lMid1
              {
                OFFSET 8.24714 1.18213 3.41376
                CHANNELS 3 Zrotation Xrotation Yrotation
                JOINT lMid2
                {
                  OFFSET 3.10165 -0.590103 1.0647
                  CHANNELS 3 Zrotation Xrotation Yrotation
                  End Site
                  {
                    OFFSET 2.48547 -0.328903 0.83742
                  }
                }
              }
              JOINT lRing1
              {
                OFFSET 8.82822 0.546677 1.51678
                CHANNELS 3 Zrotation Xrotation Yrotation
                JOINT lRing2
                {
                  OFFSET 2.60934 -0.819778 -0.0198488
                  CHANNELS 3 Zrotation Xrotation Yrotation
                  End Site
                  {
                    OFFSET 2.33842 -0.294052 0.168128
                  }
                }
              }
              JOINT lPinky1
              {
                OFFSET 8.27202 -0.0477905 -0.4584
                CHANNELS 3 Zrotation Xrotation Yrotation
                JOINT lPinky2
                {
                  OFFSET 1.82734 -0.647385 -0.700984
                  CHANNELS 3 Zrotation Xrotation Yrotation
                  End Site
                  {
                    OFFSET 1.69225 -0.51767 -0.607171
                  }
                }
              }
            }
          }
        }
      }
    }
  }
  JOINT rButtock
  {
    OFFSET -8.77824 4.35084 1.2192
    CHANNELS 3 Zrotation Xrotation Yrotation
    JOINT rThigh
    {
      OFFSET 0 -1.70687 -2.19456
      CHANNELS 3 Zrotation Xrotation Yrotation
      JOINT rShin
      {
        OFFSET 0 -36.8199 0.73152
        CHANNELS 3 Zrotation Xrotation Yrotation
        JOINT rFoot
        {
          OFFSET 0.73152 -45.1104 -5.12064
          CHANNELS 3 Zrotation Xrotation Yrotation
          End Site
          {
            OFFSET -1.1221 -3.69964 12.103
          }
        }
      }
    }
  }
  JOINT lButtock
  {
    OFFSET 8.77824 4.35084 1.2192
    CHANNELS 3 Zrotation Xrotation Yrotation
    JOINT lThigh
    {
      OFFSET 0 -1.70687 -2.19456
      CHANNELS 3 Zrotation Xrotation Yrotation
      JOINT lShin
      {
        OFFSET 0 -36.8199 0.73152
        CHANNELS 3 Zrotation Xrotation Yrotation
        JOINT lFoot
        {
          OFFSET -0.73152 -45.1104 -5.12064
          CHANNELS 3 Zrotation Xrotation Yrotation
          End Site
          {
            OFFSET 1.1221 -3.69964 12.103
          }
        }
      }
    }
  }
}
MOTION
Frames:	4
Frame Time:	0.00833333
-3.57622 84.2564 35.0785 0.0 0.0 0.0 -1.24151 -0.0039812 -0.0340788 -0.342493 -0.00249266 -0.0593271 -4.12873e-14 0.0 -7.45443e-17 -1.23579e-13 3.18055e-15 -2.98177e-16 -0.0 0.0 0.0 -0.0 0.0 0.0 -2.06263e-14 -6.23143e-17 4.96962e-17 -4.28318e-13 -1.19271e-15 -1.59028e-15 -7.42913e-12 2.18027e-12 4.13472e-14 -8.50337e-11 -2.46277e-12 -3.37139e-13 -2.00573e-10 -6.14498e-13 -6.10667e-13 -3.46384e-10 -1.06231e-12 -1.05674e-12 -2.00563e-10 -6.07884e-13 -6.20208e-13 7.73091 5.47488 0.417314 -2.00573e-10 -6.14145e-13 -6.10667e-13 2.90554 0.965183 0.102902 -2.00563e-10 -6.13549e-13 -6.17028e-13 10.2786 0.731801 0.0259123 -2.00577e-10 -6.15835e-13 -6.10667e-13 2.22167 -0.733487 -0.20892 -2.06229e-14 -6.15378e-17 -1.49089e-16 -4.35057e-13 -9.06955e-16 -3.57812e-15 -7.43201e-12 -2.26555e-12 5.08889e-14 -8.50389e-11 1.99846e-12 -3.435e-13 -2.00589e-10 -5.84729e-13 -6.20208e-13 -3.46404e-10 -1.0146e-12 -1.06231e-12 -2.00599e-10 -5.79656e-13 -6.13847e-13 -7.73091 5.47488 -0.417314 -2.00591e-10 -5.84129e-13 -6.20208e-13 -2.90554 0.965183 -0.102902 -2.00605e-10 -5.83532e-13 -6.15437e-13 -10.2786 0.731801 -0.0259123 -2.00589e-10 -5.84825e-13 -6.20208e-13 -2.22167 -0.733487 0.20892 -2.03217e-16 0.0 -3.88251e-19 -0.453843 -1.92099 -0.00952707 -0.00915558 -2.07857 -0.075552 -0.48745 3.99699 0.136652 2.03217e-16 0.0 3.88251e-19 -1.43728 -5.97115 0.129663 -0.00126417 5.25795 -0.0454132 0.507829 0.710745 -0.0722758
-5.24374 83.6838 33.776 -2.5874 -2.2162 3.2373 -0.655279 -0.883346 0.7707 -0.350823 -0.68999 0.173043 -1.26963 1.771 -1.09886 2.2137 0.564071 -2.0053 -0.0 0.0 0.0 -0.0 0.0 0.0 -1.54062e-14 7.35567e-15 -1.83488e-14 23.266 7.3741 -3.86764 -6.4194 -3.54773 9.24941 0.0988358 6.98332 0.955314 -6.65258e-11 -7.29715e-11 2.06577e-12 -1.14616e-10 -1.24321e-10 1.5669e-12 -6.65154e-11 -7.29666e-11 2.05914e-12 7.73091 5.47488 0.417314 -6.65246e-11 -7.29715e-11 2.06985e-12 2.90554 0.965183 0.102902 -6.65161e-11 -7.29709e-11 2.0624e-12 10.2786 0.731801 0.0259123 -6.65292e-11 -7.29715e-11 2.06853e-12 2.22167 -0.733487 -0.20892 -1.54748e-14 7.35692e-15 -1.85305e-14 -23.3601 8.17355 2.10304 5.36879 -2.72233 -8.05558 -0.0154564 2.75834 -0.386037 -1.88205e-10 4.14651e-11 5.3567e-11 -3.24873e-10 7.24411e-11 9.33958e-11 -1.88212e-10 4.1468e-11 5.35743e-11 -7.73091 5.47488 -0.417314 -1.88205e-10 4.14647e-11 5.35688e-11 -2.90554 0.965183 -0.102902 -1.88216e-10 4.14657e-11 5.35703e-11 -10.2786 0.731801 -0.0259123 -1.88198e-10 4.1468e-11 5.35679e-11 -2.22167 -0.733487 0.20892 -2.03217e-16 0.0 -3.88251e-19 -6.25837 -2.16986 -0.00981878 -0.00626276 -1.71768 -0.0543768 -0.219011 3.88254 0.0956251 2.03217e-16 0.0 3.88251e-19 1.48795 -7.267 -1.87896 -0.0184776 9.76176 -0.180575 0.836597 -4.87074 4.68168
-5.23421 83.6854 33.7798 -2.5502 -2.219 3.2235 -0.0100575 -1.8125 1.62262 -0.353061 -1.41652 0.418915 -2.5374 3.64172 -2.26422 4.59497 1.1573 -4.12606 -0.0 0.0 0.0 -0.0 0.0 0.0 -1.00155e-14 1.46068e-14 -3.87506e-14 48.9758 15.0549 -8.17234 -11.9746 -6.98903 19.1376 -0.0572895 14.36 2.01368 7.70515e-11 -1.5424e-10 8.16449e-12 1.33685e-10 -2.62889e-10 9.94897e-12 7.70616e-11 -1.54237e-10 8.16111e-12 7.73091 5.47488 0.417314 7.70532e-11 -1.54241e-10 8.17323e-12 2.90554 0.965183 0.102902 7.70601e-11 -1.5424e-10 8.16438e-12 10.2786 0.731801 0.0259123 7.70485e-11 -1.54239e-10 8.17025e-12 2.22167 -0.733487 -0.20892 -1.01618e-14 1.46086e-14 -3.89121e-14 -48.7337 16.7766 4.47298 10.22 -5.42048 -16.6285 0.00880363 5.675 -0.797278 -1.73043e-10 8.96267e-11 1.13299e-10 -2.98526e-10 1.56517e-10 1.97482e-10 -1.73048e-10 8.96272e-11 1.13307e-10 -7.73091 5.47488 -0.417314 -1.73042e-10 8.96252e-11 1.13303e-10 -2.90554 0.965183 -0.102902 -1.7305e-10 8.96266e-11 1.13301e-10 -10.2786 0.731801 -0.0259123 -1.7303e-10 8.96329e-11 1.13301e-10 -2.22167 -0.733487 0.20892 -2.03217e-16 0.0 -3.88251e-19 -12.3946 -2.43294 -0.0101278 -0.00349494 -1.33622 -0.032004 0.0645534 3.76157 0.0522713 2.03217e-16 0.0 3.88251e-19 4.47928 -8.62371 -4.01729 -0.0127505 14.5225 -0.328801 2.20255 -10.6495 9.84513
-5.22534 83.6875 33.7774 -2.5132 -2.2313 3.2042 0.591334 -2.64004 2.38251 -0.350744 -2.06487 0.638159 -3.60448 5.30518 -3.3092 6.75935 1.68392 -6.01822 -0.0 0.0 0.0 -0.0 0.0 0.0 -4.96613e-15 2.21916e-14 -5.51457e-14 72.9541 21.7037 -12.3982 -15.9319 -9.5354 28.1167 -0.443725 20.9258 3.04574 2.01569e-10 -2.17685e-10 7.41865e-12 3.4892e-10 -3.7084e-10 6.81417e-12 2.01579e-10 -2.17684e-10 7.41783e-12 7.73091 5.47488 0.417314 2.01571e-10 -2.17686e-10 7.43087e-12 2.90554 0.965183 0.102902 2.01577e-10 -2.17685e-10 7.42126e-12 10.2786 0.731801 0.0259123 2.01567e-10 -2.17683e-10 7.42692e-12 2.22167 -0.733487 -0.20892 -5.17844e-15 2.21938e-14 -5.52932e-14 -72.0257 24.3818 6.8593 13.8691 -7.52261 -24.3624 0.0661288 8.2735 -1.16894 -1.63435e-10 1.25565e-10 1.61942e-10 -2.81813e-10 2.19353e-10 2.82312e-10 -1.63438e-10 1.25563e-10 1.61951e-10 -7.73091 5.47488 -0.417314 -1.63433e-10 1.25562e-10 1.61947e-10 -2.90554 0.965183 -0.102902 -1.63438e-10 1.25564e-10 1.61942e-10 -10.2786 0.731801 -0.0259123 -1.63418e-10 1.25574e-10 1.61944e-10 -2.22167 -0.733487 0.20892 -2.03217e-16 0.0 -3.88251e-19 -17.8674 -2.66762 -0.0104031 -0.00127738 -0.995904 -0.0120545 0.317374 3.65364 0.0136047 2.03217e-16 0.0 3.88251e-19 7.06278 -9.81838 -5.93677 0.0142615 18.7689 -0.468344 4.32908 -15.5826 14.6902
